<?xml version="1.0" encoding="utf-8"?>
<!-- Generator: Adobe Illustrator 20.1.0, SVG Export Plug-In . SVG Version: 6.00 Build 0)  -->
<!DOCTYPE svg PUBLIC "-//W3C//DTD SVG 1.1//EN" "http://www.w3.org/Graphics/SVG/1.1/DTD/svg11.dtd">
<svg version="1.1" id="Layer_1" xmlns="http://www.w3.org/2000/svg" xmlns:xlink="http://www.w3.org/1999/xlink" x="0px" y="0px"
	 viewBox="0 0 185.4 123.5" style="enable-background:new 0 0 185.4 123.5;" xml:space="preserve">
<style type="text/css">
	.st0{fill:#FFFFFF;}
	.st1{fill:#FF0000;}
	.st2{fill:#333333;}
	.st3{fill:#4D4D4D;}
	.st4{fill:#FBAE17;}
</style>
<g>
	<g>
		<path class="st0" d="M1072.6,504.6c26.8,15.4,63.8,8.8,86.7,29.5c15.8,14.3,20.8,38.6,38.7,50.2c12,7.7,27.1,8,41.3,7.4
			c76.2-3,150.7-22.4,226.2-32.3c22.9-3,46.2-5.2,67.6-13.9c21.4-8.6,41-25,47.3-47.2c4.6-16.3,1.6-33.7-2.3-50.2
			c-6.1-26.1-14.1-51.7-24-76.5c-9.5-23.7-21.9-48.2-44.2-60.7c-15.5-8.7-33.9-10.5-51.7-11.4c-86.1-4.4-172.2,7-257.3,20.3
			c-19.4,3-39.3,6.3-56.2,16.2c-22.9,13.3-38.3,37.6-43.7,63.5s-1.6,53.2,7.5,78.1c0.7,1.9,1.5,4,0.8,6c-0.6,1.9-2.4,3.2-4.1,4.3
			c-7.8,5.3-15.4,8.3-23.2,13.6L1072.6,504.6z"/>
		<g>
			<path d="M1071.9,505.9c16.8,9.4,36.1,10.7,54.5,14.8c9.3,2.1,18.6,5,26.6,10.3c8.5,5.7,14.2,14,19.4,22.6
				c9.1,15.2,17.5,31.1,35.6,36.8c9.6,3,19.9,3.1,29.8,2.8c12.8-0.4,25.6-1.4,38.3-2.7c49.7-5,98.6-15.2,147.8-23.4
				c24.5-4.1,49.3-6.6,73.8-10.7c21.1-3.5,42.2-9.6,59.4-22.9c14.8-11.5,25.1-27.4,26.9-46.3c1.1-11.7-0.8-23.6-3.3-35
				c-2.6-12.1-5.8-24.1-9.4-36c-6.5-21.7-13.9-43.6-23.9-63.9c-8.4-17-19.8-33.3-36.6-42.8c-19.6-11-43.3-11.4-65.2-12.1
				c-25.9-0.9-51.9-0.3-77.8,1.2c-50.8,2.9-101.2,9.6-151.5,17.3c-22.2,3.4-45.6,5.8-66.1,15.5c-17.6,8.4-31.5,22.8-40.5,40
				c-9.9,18.8-13.6,40.1-12.2,61.2c0.7,11.3,2.8,22.4,5.9,33.3c1.6,5.5,7,15.2,2.4,19.9c-4.2,4.2-11.3,6.8-16.5,9.7
				c-3.3,1.8-6.3,4.2-9.9,5.3c-2.3,0.8-4.7,1.5-7,2.3c-1.8,0.6-1,3.5,0.8,2.9c5.3-1.7,9.7-3.3,14.5-6.1c4.5-2.7,9.3-5,13.9-7.7
				c3.2-1.9,8.2-4.3,9.5-8.2c1.2-3.9-1.4-8.4-2.6-11.9c-1.9-5.7-3.5-11.6-4.8-17.5c-2.5-11.6-3.7-23.6-3.3-35.4
				c0.8-20.7,7.1-41,19.2-57.9c13-18.1,31.6-29,53-34.5c22.8-5.9,46.8-8.4,70-11.7c25-3.6,50-6.8,75.1-9.4
				c48.9-5,98.6-7.6,147.7-4.3c22.2,1.5,43.7,6.5,59.7,23c14.2,14.7,22.6,34,29.9,52.9c8.7,22.6,15.9,45.8,21.5,69.3
				c5.4,22.9,8.8,47.3-5.1,67.9c-25.6,37.8-76.8,39.1-117.4,44.9c-48.3,6.9-96.1,17.2-144.4,24c-24.2,3.4-48.7,6.1-73.2,6.8
				c-11.1,0.3-22.8,0-33-4.9c-8.8-4.3-15.1-11.8-20.2-19.9c-9.2-14.5-16.3-30.4-31.9-39.2c-15.6-8.8-34.1-10.1-51.2-13.8
				c-9.1-2-18.1-4.6-26.3-9.2C1071.7,502.3,1070.2,504.9,1071.9,505.9z"/>
		</g>
	</g>
	<g>
		<g>
			<path d="M1202.3,355.2c-2.9,30.5-0.7,61.3,6.4,91.1c0.4,1.9,3.3,1.1,2.9-0.8c-7.1-29.6-9.2-60.1-6.3-90.3
				C1205.4,353.2,1202.4,353.3,1202.3,355.2L1202.3,355.2z"/>
		</g>
	</g>
	<g>
		<g>
			<path d="M1165.6,389.1c22.7,2.6,45.6-3.6,63.9-17.3c1.5-1.1,0-3.7-1.5-2.6c-17.9,13.4-40.2,19.4-62.4,16.9
				C1163.7,385.9,1163.7,388.9,1165.6,389.1L1165.6,389.1z"/>
		</g>
	</g>
	<g>
		<g>
			<path d="M1224.6,397.9c-1.9,16.9,1.6,33.8,10.1,48.6c1,1.7,3.6,0.2,2.6-1.5c-8.3-14.3-11.6-30.6-9.7-47.1
				C1227.8,396,1224.8,396,1224.6,397.9L1224.6,397.9z"/>
		</g>
	</g>
	<g>
		<g>
			<path d="M1262.2,385.3c0,15.9,0,31.9,0,47.8c0,1.9,3,1.9,3,0c0-15.9,0-31.9,0-47.8C1265.2,383.4,1262.2,383.4,1262.2,385.3
				L1262.2,385.3z"/>
		</g>
	</g>
	<g>
		<g>
			<path d="M1261.2,406.3c-11.2-0.1-21.5,4.7-28.7,13.3c-1.2,1.5,0.9,3.6,2.1,2.1c6.7-8,16.1-12.5,26.5-12.4
				C1263.1,409.3,1263.2,406.3,1261.2,406.3L1261.2,406.3z"/>
		</g>
	</g>
	<g>
		<g>
			<path d="M1297.5,408c0,8.4,0,16.8,0,25.2c0,1.9,3,1.9,3,0c0-8.4,0-16.8,0-25.2C1300.5,406,1297.5,406,1297.5,408L1297.5,408z"/>
		</g>
	</g>
	<g>
		<g>
			<path d="M1291.4,391.9c1.9,0,1.9-3,0-3C1289.5,388.9,1289.5,391.9,1291.4,391.9L1291.4,391.9z"/>
		</g>
	</g>
	<g>
		<g>
			<path d="M1347.3,384.9c-8-1.3-18.8-2-22.4,7.1c-2.6,6.5-2.6,18.4,6.2,19.4c4.9,0.6,9.9-1.5,14.4-2.9c4.2-1.3,8.4-4.2,11.3,1.3
				c1.7,3.1,1.4,7.8,1.5,11.3c0.4,8.1-0.9,14.8-10,16.8c-6.9,1.5-13.8-0.4-19.4-4.6c-1.5-1.2-3,1.4-1.5,2.6
				c7.7,5.8,19.3,7.7,27.8,2.5c8.7-5.4,6.9-19.1,4.9-27.6c-0.8-3.6-2.1-7.5-6.4-7.6c-5.3-0.1-11.2,3.4-16.4,4.6
				c-3.6,0.9-8.7,1.8-10.4-2.8c-1-2.6-0.5-7.7,0.1-10.3c2.2-8.9,12.2-8.1,19.3-6.9C1348.4,388.1,1349.3,385.2,1347.3,384.9
				L1347.3,384.9z"/>
		</g>
	</g>
	<g>
		<g>
			<path d="M1292.2,385.9c0.8,5.6,11.1,0.7,5.4-3.9c-2.5-2-5.8-1.1-7.5,1.4c-1.9,2.9-1.8,7.1,0.2,10c1.8,2.6,5,3.7,8,2.5
				c2.6-1.1,4.2-4.1,2.8-6.8c-1.2-2.3-4.7-4.1-6.9-2.1c-2.1,1.9-1.8,6.4,0.8,7.7c3.7,1.9,5.2-2.8,5-5.7c-0.2-3.9-2.6-7.5-6.1-9.1
				c-1.1-0.5-2.6,0.4-2.2,1.7c1,3.7,4.1,6.1,7.9,6.2c0.6,0,1.3-0.5,1.4-1.1c1-4-4.8-6.2-6.2-2.1c-1.4,4.2,4.2,6.3,6.7,3.2
				c0.6-0.7,0.6-1.8-0.3-2.4c-2.6-1.5-5.4-1.6-8.1-0.2c-0.7,0.4-1,1.4-0.5,2.1c1.2,1.6,2.6,2.7,4.6,3.1c0.6,0.1,1.4-0.1,1.7-0.7
				c2.2-4.9-4.1-8.6-7.2-4.1c-1.1,1.6,1.5,3.1,2.6,1.5c1.3-1.2,1.9-0.8,2,1c0.6-0.2,1.1-0.5,1.7-0.7c-1.2-0.3-2.1-0.7-2.8-1.7
				c-0.2,0.7-0.4,1.4-0.5,2.1c1.7-0.9,3.4-0.8,5,0.2c-0.1-0.8-0.2-1.6-0.3-2.4c-0.3,0.7-0.7,0.8-1.2,0.2c0.5-0.4,1-0.7,1.4-1.1
				c-2.5-0.1-4.4-1.6-5-4c-0.7,0.6-1.5,1.1-2.2,1.7c2.7,1.3,4.6,3.8,4.7,6.9c0,0.6,0.1,1.4-0.2,2c-0.8,1.4-1-0.7-0.8-1.3
				c0.7-2.1,3.1,0.3,2.4,1.9c-0.6,1.3-2.5,1.7-3.8,1.2c-1.8-0.6-2.7-2.6-2.9-4.3c-0.1-1.3,0.1-3.2,1.1-4.2c0.6-0.5,2-1.3,2.7-0.5
				c0.7,0.8-0.4,1.9-0.6,0.9C1294.8,383.2,1291.9,384,1292.2,385.9L1292.2,385.9z"/>
		</g>
	</g>
	<g>
		<g>
			<path d="M1417.2,386.5c-0.9,13.4-0.2,26.8,2.1,40.1c0.3,1.9,3.2,1.1,2.9-0.8c-2.2-13-2.8-26.1-1.9-39.3
				C1420.3,384.5,1417.3,384.5,1417.2,386.5L1417.2,386.5z"/>
		</g>
	</g>
	<g>
		<g>
			<path d="M1449.6,381.4c-3.8,4.3-4,10.6-0.5,15.2c3.9,5.1,11,6.2,16.9,4.7c4.8-1.3,10.3-4.1,12.8,2.1c2,4.9-0.8,9.4-5,11.9
				c-8.1,4.7-18.5,2.3-27.4,4c-1.9,0.4-1.1,3.2,0.8,2.9c8.7-1.6,18,0.3,26.3-3.4c5.6-2.5,9.9-7.7,8.8-14.1c-0.9-5-4.8-9.1-10.1-8.4
				c-4.9,0.6-8.9,3.6-14.1,2.4c-6.6-1.5-11.4-9.3-6.3-15.1C1453,382.1,1450.9,379.9,1449.6,381.4L1449.6,381.4z"/>
		</g>
	</g>
	<g>
		<g>
			<path d="M1277.8,468.3c1.8,24.9,11.5,48.5,13.2,73.4c0.1,1.9,3.1,1.9,3,0c-1.7-24.9-11.4-48.5-13.2-73.4
				C1280.6,466.4,1277.6,466.4,1277.8,468.3L1277.8,468.3z"/>
		</g>
	</g>
	<g>
		<g>
			<path d="M1270.1,494c15.6-10.9,32.1-20.5,49.4-28.5c-0.7-0.7-1.4-1.4-2.1-2.1c-1.4,2.6-2.9,5.1-4.3,7.7c-0.9,1.7,1.6,3.2,2.6,1.5
				c1.4-2.6,2.9-5.1,4.3-7.7c0.8-1.4-0.7-2.7-2.1-2.1c-17.3,8.1-33.8,17.6-49.4,28.5C1267.1,492.6,1268.6,495.2,1270.1,494
				L1270.1,494z"/>
		</g>
	</g>
	<g>
		<g>
			<path d="M1287.1,501.3c6.4,1,12.7,0.6,19-1.2c1.9-0.5,1.1-3.4-0.8-2.9c-5.7,1.6-11.5,2.1-17.4,1.2
				C1286,498.1,1285.2,501,1287.1,501.3L1287.1,501.3z"/>
		</g>
	</g>
	<g>
		<g>
			<path d="M1324.9,504.6c0,6.1,0,12.2,0,18.3c0,3.3-1.3,8.6,1.1,11.3c0.3,0.4,1,0.6,1.5,0.4c1-0.4,1.4-0.7,1.6-1.7
				c0.2-0.6-0.1-1.4-0.7-1.7c-0.1-0.1-0.2-0.1-0.3-0.2c-1.7-1-3.2,1.6-1.5,2.6c0.1,0.1,0.2,0.1,0.3,0.2c-0.2-0.6-0.5-1.1-0.7-1.7
				c1.8,0.1,2.3-0.7,1.7-2.4c0-1.3,0-2.6,0-3.9c0-2.2,0-4.5,0-6.7c0-4.8,0-9.6,0-14.5C1327.9,502.6,1324.9,502.6,1324.9,504.6
				L1324.9,504.6z"/>
		</g>
	</g>
	<g>
		<g>
			<path d="M1327.3,500.6c1.9,0,1.9-3,0-3C1325.4,497.6,1325.4,500.6,1327.3,500.6L1327.3,500.6z"/>
		</g>
	</g>
	<g>
		<g>
			<path d="M1346.7,527.2c0.2-11.1,1.1-22.1,2.8-33c-0.9,0.1-1.8,0.2-2.7,0.4c7,11.5,14.1,23.1,21.1,34.6c0.3,0.6,1.1,0.9,1.7,0.7
				c4.8-1.5,3.6-8.7,3.5-12.6c0-7.7-0.8-15.4-2.1-23c-0.3-1.9-3.2-1.1-2.9,0.8c0.9,5.5,1.6,11,1.8,16.5c0.1,2.4,1.5,14.5-1.2,15.3
				c0.6,0.2,1.1,0.5,1.7,0.7c-7-11.5-14.1-23.1-21.1-34.6c-0.6-1-2.5-1-2.7,0.4c-1.8,11.2-2.8,22.5-3,33.8
				C1343.7,529.1,1346.7,529.1,1346.7,527.2L1346.7,527.2z"/>
		</g>
	</g>
	<g>
		<g>
			<path d="M1389.9,486.5c1.1,8.3-1.8,17,0.7,25.2c1.8,5.8,6.5,9.8,12.4,11.4c15.5,4.2,27.6-8.1,36.9-18.6c1.3-1.4-0.8-3.6-2.1-2.1
				c-8.3,9.4-18.8,20.9-32.7,18.1c-17.2-3.5-10.5-21.7-12.1-34C1392.7,484.6,1389.7,484.6,1389.9,486.5L1389.9,486.5z"/>
		</g>
	</g>
	<g>
		<g>
			<path d="M1402.2,504.9c6.6-3,13.4-5.3,20.5-7c1.9-0.5,1.1-3.3-0.8-2.9c-7.3,1.8-14.3,4.2-21.2,7.3
				C1398.9,503.1,1400.4,505.7,1402.2,504.9L1402.2,504.9z"/>
		</g>
	</g>
	<g>
		<g>
			<path d="M1393,484.8c8.9,1.8,17.5,0.8,25.7-2.9c1.8-0.8,0.2-3.4-1.5-2.6c-7.4,3.4-15.4,4.3-23.4,2.6
				C1391.9,481.6,1391.1,484.5,1393,484.8L1393,484.8z"/>
		</g>
	</g>
	<g>
		<g>
			<path d="M1473.8,376.6c-8.8-1.9-17.7,0.8-23.8,7.5c-1.3,1.4,0.8,3.5,2.1,2.1c5.4-5.9,13.1-8.4,20.9-6.7
				C1474.9,379.9,1475.7,377,1473.8,376.6L1473.8,376.6z"/>
		</g>
	</g>
</g>
<g>
	<g>
		<path d="M-256.7,504.6c26.8,15.4,63.8,8.8,86.7,29.5c15.8,14.3,20.8,38.6,38.7,50.2c12,7.7,27.1,8,41.3,7.4
			c76.2-3,150.7-22.4,226.2-32.3c22.9-3,46.2-5.2,67.6-13.9s41-25,47.3-47.2c4.6-16.3,1.6-33.7-2.3-50.2
			c-6.1-26.1-14.1-51.7-24-76.5c-9.5-23.7-21.9-48.2-44.2-60.7c-15.5-8.7-33.9-10.5-51.7-11.4c-86.1-4.4-172.2,7-257.3,20.3
			c-19.4,3-39.3,6.3-56.2,16.2c-22.9,13.3-38.3,37.6-43.7,63.5s-1.6,53.2,7.5,78.1c0.7,1.9,1.5,4,0.8,6c-0.6,1.9-2.4,3.2-4.1,4.3
			c-7.8,5.3-15.4,8.3-23.2,13.6L-256.7,504.6z"/>
		<g>
			<path d="M-257.5,505.9c16.8,9.4,36.1,10.7,54.5,14.8c9.3,2.1,18.6,5,26.6,10.3c8.5,5.7,14.2,14,19.4,22.6
				c9.1,15.2,17.5,31.1,35.6,36.8c9.6,3,19.9,3.1,29.8,2.8c12.8-0.4,25.6-1.4,38.3-2.7c49.7-5,98.6-15.2,147.8-23.4
				c24.5-4.1,49.3-6.6,73.8-10.7c21.1-3.5,42.2-9.6,59.4-22.9c14.8-11.5,25.1-27.4,26.9-46.3c1.1-11.7-0.8-23.6-3.3-35
				c-2.6-12.1-5.8-24.1-9.4-36c-6.5-21.7-13.9-43.6-23.9-63.9c-8.4-17-19.8-33.3-36.6-42.8c-19.6-11-43.3-11.4-65.2-12.1
				c-25.9-0.9-51.9-0.3-77.8,1.2c-50.8,2.9-101.2,9.6-151.5,17.3c-22.2,3.4-45.6,5.8-66.1,15.5c-17.6,8.4-31.5,22.8-40.5,40
				c-9.9,18.8-13.6,40.1-12.2,61.2c0.7,11.3,2.8,22.4,5.9,33.3c1.6,5.5,7,15.2,2.4,19.9c-4.2,4.2-11.3,6.8-16.5,9.7
				c-3.3,1.8-6.3,4.2-9.9,5.3c-2.3,0.8-4.7,1.5-7,2.3c-1.8,0.6-1,3.5,0.8,2.9c5.3-1.7,9.7-3.3,14.5-6.1c4.5-2.7,9.3-5,13.9-7.7
				c3.2-1.9,8.2-4.3,9.5-8.2c1.2-3.9-1.4-8.4-2.6-11.9c-1.9-5.7-3.5-11.6-4.8-17.5c-2.5-11.6-3.7-23.6-3.3-35.4
				c0.8-20.7,7.1-41,19.2-57.9c13-18.1,31.6-29,53-34.5c22.8-5.9,46.8-8.4,70-11.7c25-3.6,50-6.8,75.1-9.4
				c48.9-5,98.6-7.6,147.7-4.3c22.2,1.5,43.7,6.5,59.7,23c14.2,14.7,22.6,34,29.9,52.9c8.7,22.6,15.9,45.8,21.5,69.3
				c5.4,22.9,8.8,47.3-5.1,67.9c-25.6,37.8-76.8,39.1-117.4,44.9c-48.3,6.9-96.1,17.2-144.4,24c-24.2,3.4-48.7,6.1-73.2,6.8
				c-11.1,0.3-22.8,0-33-4.9c-8.8-4.3-15.1-11.8-20.2-19.9c-9.2-14.5-16.3-30.4-31.9-39.2c-15.6-8.8-34.1-10.1-51.2-13.8
				c-9.1-2-18.1-4.6-26.3-9.2C-257.7,502.3-259.2,504.9-257.5,505.9z"/>
		</g>
	</g>
	<g>
		<path d="M-127.1,355.2c-2.9,30.5-0.7,61.3,6.4,91.1c0.4,1.9,3.3,1.1,2.9-0.8c-7.1-29.6-9.2-60.1-6.3-90.3
			C-123.9,353.2-126.9,353.3-127.1,355.2L-127.1,355.2z"/>
	</g>
	<g>
		<path d="M-163.8,389.1c22.7,2.6,45.6-3.6,63.9-17.3c1.5-1.1,0-3.7-1.5-2.6c-17.9,13.4-40.2,19.4-62.4,16.9
			C-165.7,385.9-165.7,388.9-163.8,389.1L-163.8,389.1z"/>
	</g>
	<g>
		<path d="M-104.8,397.9c-1.9,16.9,1.6,33.8,10.1,48.6c1,1.7,3.6,0.2,2.6-1.5c-8.3-14.3-11.6-30.6-9.7-47.1
			C-101.5,396-104.5,396-104.8,397.9L-104.8,397.9z"/>
	</g>
	<g>
		<path d="M-67.1,385.3c0,15.9,0,31.9,0,47.8c0,1.9,3,1.9,3,0c0-15.9,0-31.9,0-47.8C-64.1,383.4-67.1,383.4-67.1,385.3L-67.1,385.3z
			"/>
	</g>
	<g>
		<path d="M-68.1,406.3c-11.2-0.1-21.5,4.7-28.7,13.3c-1.2,1.5,0.9,3.6,2.1,2.1c6.7-8,16.1-12.5,26.5-12.4
			C-66.2,409.3-66.2,406.3-68.1,406.3L-68.1,406.3z"/>
	</g>
	<g>
		<path d="M-31.9,408c0,8.4,0,16.8,0,25.2c0,1.9,3,1.9,3,0c0-8.4,0-16.8,0-25.2C-28.9,406-31.9,406-31.9,408L-31.9,408z"/>
	</g>
	<g>
		<path d="M-38,391.9c1.9,0,1.9-3,0-3C-39.9,388.9-39.9,391.9-38,391.9L-38,391.9z"/>
	</g>
	<g>
		<path d="M18,384.9c-8-1.3-18.8-2-22.4,7.1c-2.6,6.5-2.6,18.4,6.2,19.4c4.9,0.6,9.9-1.5,14.4-2.9c4.2-1.3,8.4-4.2,11.3,1.3
			c1.7,3.1,1.4,7.8,1.5,11.3c0.4,8.1-0.9,14.8-10,16.8c-6.9,1.5-13.8-0.4-19.4-4.6c-1.5-1.2-3,1.4-1.5,2.6
			c7.7,5.8,19.3,7.7,27.8,2.5c8.7-5.4,6.9-19.1,4.9-27.6c-0.8-3.6-2.1-7.5-6.4-7.6c-5.3-0.1-11.2,3.4-16.4,4.6
			c-3.6,0.9-8.7,1.8-10.4-2.8c-1-2.6-0.5-7.7,0.1-10.3c2.2-8.9,12.2-8.1,19.3-6.9C19.1,388.1,19.9,385.2,18,384.9L18,384.9z"/>
	</g>
	<g>
		<path d="M-37.2,385.9c0.8,5.6,11.1,0.7,5.4-3.9c-2.5-2-5.8-1.1-7.5,1.4c-1.9,2.9-1.8,7.1,0.2,10c1.8,2.6,5,3.7,8,2.5
			c2.6-1.1,4.2-4.1,2.8-6.8c-1.2-2.3-4.7-4.1-6.9-2.1c-2.1,1.9-1.8,6.4,0.8,7.7c3.7,1.9,5.2-2.8,5-5.7c-0.2-3.9-2.6-7.5-6.1-9.1
			c-1.1-0.5-2.6,0.4-2.2,1.7c1,3.7,4.1,6.1,7.9,6.2c0.6,0,1.3-0.5,1.4-1.1c1-4-4.8-6.2-6.2-2.1c-1.4,4.2,4.2,6.3,6.7,3.2
			c0.6-0.7,0.6-1.8-0.3-2.4c-2.6-1.5-5.4-1.6-8.1-0.2c-0.7,0.4-1,1.4-0.5,2.1c1.2,1.6,2.6,2.7,4.6,3.1c0.6,0.1,1.4-0.1,1.7-0.7
			c2.2-4.9-4.1-8.6-7.2-4.1c-1.1,1.6,1.5,3.1,2.6,1.5c1.3-1.2,1.9-0.8,2,1c0.6-0.2,1.1-0.5,1.7-0.7c-1.2-0.3-2.1-0.7-2.8-1.7
			c-0.2,0.7-0.4,1.4-0.5,2.1c1.7-0.9,3.4-0.8,5,0.2c-0.1-0.8-0.2-1.6-0.3-2.4c-0.3,0.7-0.7,0.8-1.2,0.2c0.5-0.4,1-0.7,1.4-1.1
			c-2.5-0.1-4.4-1.6-5-4c-0.7,0.6-1.5,1.1-2.2,1.7c2.7,1.3,4.6,3.8,4.7,6.9c0,0.6,0.1,1.4-0.2,2c-0.8,1.4-1-0.7-0.8-1.3
			c0.7-2.1,3.1,0.3,2.4,1.9c-0.6,1.3-2.5,1.7-3.8,1.2c-1.8-0.6-2.7-2.6-2.9-4.3c-0.1-1.3,0.1-3.2,1.1-4.2c0.6-0.5,2-1.3,2.7-0.5
			c0.7,0.8-0.4,1.9-0.6,0.9C-34.6,383.2-37.4,384-37.2,385.9L-37.2,385.9z"/>
	</g>
	<g>
		<path d="M87.8,386.5c-0.9,13.4-0.2,26.8,2.1,40.1c0.3,1.9,3.2,1.1,2.9-0.8c-2.2-13-2.8-26.1-1.9-39.3
			C91,384.5,88,384.5,87.8,386.5L87.8,386.5z"/>
	</g>
	<g>
		<path d="M120.2,381.4c-3.8,4.3-4,10.6-0.5,15.2c3.9,5.1,11,6.2,16.9,4.7c4.8-1.3,10.3-4.1,12.8,2.1c2,4.9-0.8,9.4-5,11.9
			c-8.1,4.7-18.5,2.3-27.4,4c-1.9,0.4-1.1,3.2,0.8,2.9c8.7-1.6,18,0.3,26.3-3.4c5.6-2.5,9.9-7.7,8.8-14.1c-0.9-5-4.8-9.1-10.1-8.4
			c-4.9,0.6-8.9,3.6-14.1,2.4c-6.6-1.5-11.4-9.3-6.3-15.1C123.6,382.1,121.5,379.9,120.2,381.4L120.2,381.4z"/>
	</g>
	<g>
		<path d="M-51.6,468.3c1.8,24.9,11.5,48.5,13.2,73.4c0.1,1.9,3.1,1.9,3,0c-1.7-24.9-11.4-48.5-13.2-73.4
			C-48.7,466.4-51.7,466.4-51.6,468.3L-51.6,468.3z"/>
	</g>
	<g>
		<path d="M-59.2,494c15.6-10.9,32.1-20.5,49.4-28.5c-0.7-0.7-1.4-1.4-2.1-2.1c-1.4,2.6-2.9,5.1-4.3,7.7c-0.9,1.7,1.6,3.2,2.6,1.5
			c1.4-2.6,2.9-5.1,4.3-7.7c0.8-1.4-0.7-2.7-2.1-2.1c-17.3,8.1-33.8,17.6-49.4,28.5C-62.3,492.6-60.8,495.2-59.2,494L-59.2,494z"/>
	</g>
	<g>
		<path d="M-42.2,501.3c6.4,1,12.7,0.6,19-1.2c1.9-0.5,1.1-3.4-0.8-2.9c-5.7,1.6-11.5,2.1-17.4,1.2C-43.3,498.1-44.1,501-42.2,501.3
			L-42.2,501.3z"/>
	</g>
	<g>
		<path d="M-4.5,504.6c0,6.1,0,12.2,0,18.3c0,3.3-1.3,8.6,1.1,11.3c0.3,0.4,1,0.6,1.5,0.4c1-0.4,1.4-0.7,1.6-1.7
			c0.2-0.6-0.1-1.4-0.7-1.7c-0.1-0.1-0.2-0.1-0.3-0.2c-1.7-1-3.2,1.6-1.5,2.6c0.1,0.1,0.2,0.1,0.3,0.2c-0.2-0.6-0.5-1.1-0.7-1.7
			c1.8,0.1,2.3-0.7,1.7-2.4c0-1.3,0-2.6,0-3.9c0-2.2,0-4.5,0-6.7c0-4.8,0-9.6,0-14.5C-1.5,502.6-4.5,502.6-4.5,504.6L-4.5,504.6z"/>
	</g>
	<g>
		<path d="M-2.1,500.6c1.9,0,1.9-3,0-3C-4,497.6-4,500.6-2.1,500.6L-2.1,500.6z"/>
	</g>
	<g>
		<path d="M17.3,527.2c0.2-11.1,1.1-22.1,2.8-33c-0.9,0.1-1.8,0.2-2.7,0.4c7,11.5,14.1,23.1,21.1,34.6c0.3,0.6,1.1,0.9,1.7,0.7
			c4.8-1.5,3.6-8.7,3.5-12.6c0-7.7-0.8-15.4-2.1-23c-0.3-1.9-3.2-1.1-2.9,0.8c0.9,5.5,1.6,11,1.8,16.5c0.1,2.4,1.5,14.5-1.2,15.3
			c0.6,0.2,1.1,0.5,1.7,0.7c-7-11.5-14.1-23.1-21.1-34.6c-0.6-1-2.5-1-2.7,0.4c-1.8,11.2-2.8,22.5-3,33.8
			C14.3,529.1,17.3,529.1,17.3,527.2L17.3,527.2z"/>
	</g>
	<g>
		<path d="M60.6,486.5c1.1,8.3-1.8,17,0.7,25.2c1.8,5.8,6.5,9.8,12.4,11.4c15.5,4.2,27.6-8.1,36.9-18.6c1.3-1.4-0.8-3.6-2.1-2.1
			c-8.3,9.4-18.8,20.9-32.7,18.1c-17.2-3.5-10.5-21.7-12.1-34C63.3,484.6,60.3,484.6,60.6,486.5L60.6,486.5z"/>
	</g>
	<g>
		<path d="M72.8,504.9c6.6-3,13.4-5.3,20.5-7c1.9-0.5,1.1-3.3-0.8-2.9c-7.3,1.8-14.3,4.2-21.2,7.3C69.5,503.1,71.1,505.7,72.8,504.9
			L72.8,504.9z"/>
	</g>
	<g>
		<path d="M63.6,484.8c8.9,1.8,17.5,0.8,25.7-2.9c1.8-0.8,0.2-3.4-1.5-2.6c-7.4,3.4-15.4,4.3-23.4,2.6
			C62.5,481.6,61.7,484.5,63.6,484.8L63.6,484.8z"/>
	</g>
	<g>
		<path d="M144.5,376.6c-8.8-1.9-17.7,0.8-23.8,7.5c-1.3,1.4,0.8,3.5,2.1,2.1c5.4-5.9,13.1-8.4,20.9-6.7
			C145.5,379.9,146.3,377,144.5,376.6L144.5,376.6z"/>
	</g>
</g>
<g>
	<g>
		<path class="st1" d="M1274.1,1038.1c-4.8-42.2-1.8-89.5,27.8-119.9c2.4,34.9,23.2,68,53.7,85.3c60.4-68.1,82.5-168.2,56.4-255.4
			c44.2,24.8,73.1,74.8,72.6,125.5c60.5-91.9,56.9-214.3,114.4-308.1c20.8,79.6,41.5,159.2,62.3,238.9c20.2-15.2,32.5-38.6,42.1-62
			c45.7-110.5,45.6-239-0.1-349.4c131,71.7,227.1,204,255,350.6c14.6,76.7,6.2,151.2,8.2,227.5c2.2,84.3,5.2,168.6,7.7,252.8
			c1,32.9,1.6,67.8-14.8,96.4c-10.7,18.7-27.8,32.9-45.7,44.9c-66.4,44.3-149.9,62.1-228.6,48.7c-34.6-5.9-68.2-17.6-103-22.5
			c-71.3-10-147.5,8.3-213.6-20.2c-52.1-22.4-87.4-75.4-94.8-130.8c-3.9-29.4,4.2-53.2,8.9-81.3
			C1289.4,1118.9,1278.6,1077.9,1274.1,1038.1z"/>
		<g>
			<path d="M1275.6,1038.1c-4.6-40.7-2.6-87.5,27.3-118.8c-0.9-0.4-1.7-0.7-2.6-1.1c2.8,35.7,23.4,68.6,54.4,86.6
				c0.5,0.3,1.4,0.3,1.8-0.2c47.2-53.6,71.4-126,67.2-197.2c-1.2-20.2-4.7-40.2-10.4-59.6c-0.7,0.6-1.5,1.1-2.2,1.7
				c43.9,25,72.1,73.7,71.8,124.3c0,1.5,2,2,2.8,0.8c47.5-72.7,55.5-161.5,83.7-241.9c8.1-23,18-45.4,30.7-66.3
				c-0.9-0.1-1.8-0.2-2.7-0.4c20.8,79.6,41.5,159.2,62.3,238.9c0.2,0.8,1.4,1.5,2.2,0.9c20.9-16.1,33.3-39.7,43.2-63.7
				c11.2-27.2,19.6-55.5,25.3-84.4c11-56.3,11.5-114.5,1.6-171c-5.7-32.2-14.8-63.7-27.3-94c-0.7,0.6-1.5,1.1-2.2,1.7
				c50.8,27.9,96.4,64.9,134.8,108.3c38.6,43.7,69.9,94,91.8,148c10.8,26.5,19.3,54,25.3,82c7.7,35.6,10.4,71.8,11,108.2
				c0.5,36.8-1,73.6-0.8,110.5c0.2,37.5,1.9,75.1,3,112.6c1.2,37.7,2.4,75.4,3.6,113.2c0.6,18.5,1.3,37.1,1.7,55.6
				c0.4,16.7,0.4,33.6-2.4,50.1c-2.7,16.1-8.2,31.7-17.8,45.1c-9.4,13-21.9,23.6-35,32.8c-26.6,18.6-56.4,32.8-87.4,42.2
				c-30.9,9.4-63.2,14.1-95.5,13.9c-34.8-0.3-68-7.8-101.6-16.2c-17.4-4.3-34.8-8.5-52.6-10.9c-16.5-2.2-33.2-2.9-49.8-3.1
				c-33.4-0.4-67,1.6-100.4-1.8c-31.7-3.2-63.1-11.9-89.1-30.9c-23.3-17-41.5-40.8-53-67.2c-5.7-13-9.8-26.7-12.1-40.7
				c-3-17.6-1.8-34.9,1.4-52.4c3-16.6,7.3-33,8.4-49.8c1.1-17.5-0.5-35.1-2.8-52.4C1280.8,1073.5,1277.6,1055.9,1275.6,1038.1
				c-0.2-1.9-3.2-1.9-3,0c4.3,36.6,13.5,73.3,10,110.4c-1.7,17.9-6.7,35.3-9.4,53c-2.4,15.9-2.4,31.6,0.5,47.4
				c10.2,55.6,47.7,106,101.2,126.4c64.8,24.7,135.7,8.5,202.9,16.9c37.4,4.7,73.2,17.6,110.4,23.6c31.5,5,63.6,5.1,95.1,0.5
				c32.2-4.6,63.7-14.2,93.1-28.2c27.8-13.3,57-30.6,76.3-55.2c20.1-25.7,23.7-58.2,23.5-89.8c-0.2-37.7-2.2-75.4-3.4-113
				c-2.5-77.1-5.9-154.2-4.6-231.3c0.6-37.8,1.1-75.7-2.5-113.4c-3.1-32.2-9.5-63.9-19-94.8c-17.3-56.1-44.5-109.1-79.6-156.2
				c-34.9-46.8-77.5-87.8-126-120.2c-12-8-24.4-15.5-37.1-22.5c-1-0.6-2.7,0.4-2.2,1.7c43.2,104.9,45.6,225.5,6.6,332
				c-10.4,28.4-23.2,58.7-47.9,77.7c0.7,0.3,1.5,0.6,2.2,0.9c-20.8-79.6-41.5-159.2-62.3-238.9c-0.3-1.3-2.1-1.4-2.7-0.4
				c-45.2,74.1-52.5,162.7-82.2,242.8c-8.5,22.8-18.9,44.9-32.2,65.3c0.9,0.3,1.9,0.5,2.8,0.8c0.3-51.6-28.5-101.3-73.3-126.8
				c-1.1-0.6-2.6,0.4-2.2,1.7c20,67.8,11.4,142.7-21.9,204.9c-9.5,17.6-20.9,34.1-34.1,49c0.6-0.1,1.2-0.2,1.8-0.2
				c-30-17.4-50.2-49.4-52.9-84c-0.1-1.2-1.6-2.1-2.6-1.1c-30.5,31.9-32.9,79.4-28.2,120.9C1272.8,1040,1275.8,1040,1275.6,1038.1z"
				/>
		</g>
	</g>
	<g>
		<path class="st1" d="M767.3,644.8c45.7-42.9,75.1-102.6,81.2-164.9c27.3,11,44.1,40,48.6,69.1c4.5,29.1-1.1,58.7-6.7,87.7
			c37.6-20.7,68.9-52.8,88.7-90.9c72.1,64.3,101.1,172.9,70.7,264.6c50.2-16.4,96.6-44.2,134.8-80.7c-0.7,40.1-1.5,80.2-2.2,120.3
			c-1.2,63.4,0.5,134.4,45.3,179.3c25,25,60.3,38.1,83.9,64.5c21.5,24.2,30.7,56.6,39.2,87.9c14.8,54.3,29.6,108.6,44.4,162.9
			c-117.4,31.9-238.1,51.7-359.5,59.2c-53.3,3.3-107.3,4.1-159.4-7.5c-52.1-11.6-102.6-36.7-136.5-77.9
			c-46.2-56.2-55.9-134-52.4-206.7c2.9-59.1,13.1-117.6,23.4-175.9c17.7-100.4,23.2-131.8,40.8-232.2L767.3,644.8z"/>
		<g>
			<path d="M768.4,645.8c46-43.5,75.3-103.1,81.7-166c-0.6,0.5-1.3,1-1.9,1.4c24.5,10.1,39.8,34.3,45.8,59.3c7.5,31.5,1,64.4-5,95.6
				c-0.2,1.3,1,2.4,2.2,1.7c37.9-21.1,69.1-53,89.2-91.4c-0.8,0.1-1.6,0.2-2.4,0.3c56,50.3,85.9,126.5,81.9,201.4
				c-1.1,21-5,41.8-11.5,61.8c-0.3,1.1,0.8,2.2,1.8,1.8c50.5-16.6,96.9-44.4,135.4-81c-0.9-0.4-1.7-0.7-2.6-1.1
				c-0.9,48.7-2.7,97.5-2.5,146.3c0.2,38.4,2.9,78.5,18.7,114c7.7,17.4,18.8,33.1,33.1,45.8c15.2,13.5,33,23.5,49.6,34.9
				c17.9,12.3,33.1,26.7,43.7,45.9c10.6,19.2,16.8,40.5,22.6,61.5c15.3,55.6,30.3,111.3,45.5,166.9c0.3-0.6,0.7-1.2,1-1.8
				c-101.8,27.6-205.9,46.2-311,55.5c-97,8.6-204.9,15.8-291.5-37.2c-38.7-23.7-67.8-58.7-84.1-101c-15.9-41.1-20.5-85.8-19.9-129.5
				c0.7-52.2,8.4-104.1,17.1-155.4c7.6-45.2,15.8-90.2,23.7-135.4c6.8-38.8,13.7-77.7,20.5-116.5c2.1-11.8,4.4-23.1,7.4-34.6
				c3.2-12.2,6.4-24.3,9.7-36.5c0.6-2.4,1.3-4.8,1.9-7.2c0.5-1.9-2.4-2.7-2.9-0.8c-5.1,19.1-10.4,38.1-15.2,57.3
				c-2.1,8.3-3.1,17-4.6,25.5c-2,11.3-4,22.7-6,34c-3.3,18.6-6.6,37.3-9.8,55.9c-7.5,42.5-15,85.1-22.5,127.6
				c-9.3,53-18.3,106.1-21.4,159.9c-5,86.5,8.1,182.5,78.9,241c77.1,63.7,182.4,65.2,277.2,59.1c106.1-6.9,211.6-23.3,314.8-48.8
				c12.8-3.2,25.6-6.5,38.3-9.9c0.8-0.2,1.3-1.1,1-1.8c-13.6-49.8-27.2-99.7-40.8-149.5c-10.9-40.1-20.9-83.2-53.3-111.9
				c-15.2-13.4-32.9-23.4-49.6-34.9c-17-11.7-31.9-25.4-42.6-43.2c-20.7-34.2-25.5-75.6-26.5-114.8c-0.6-24.5,0.2-49,0.6-73.5
				c0.5-28.9,1.1-57.8,1.6-86.8c0-1.3-1.6-1.9-2.6-1.1c-38.1,36.3-84.1,63.8-134.1,80.3c0.6,0.6,1.2,1.2,1.8,1.8
				c23.7-72.2,11.4-154.2-29.8-217.7c-11.6-17.9-25.5-34.2-41.3-48.4c-0.7-0.6-1.9-0.6-2.4,0.3c-19.9,38-50.6,69.5-88.1,90.3
				c0.7,0.6,1.5,1.1,2.2,1.7c6.3-32.6,13.1-67.2,4.3-100.1c-6.8-25.1-22.6-48.3-47.2-58.5c-1-0.4-1.8,0.6-1.9,1.4
				c-6.3,62.1-35.4,121-80.8,163.9C764.8,645,767,647.2,768.4,645.8z"/>
		</g>
	</g>
</g>
<g>
	<g>
		<path class="st2" d="M723.4,24.2C693,28.8,671.3,42.6,640.7,41c-14.8-0.8-29.9-2.4-43-9.2c-16.9-8.9-28.3-25.6-37.4-42.4
			C538.9-50,526-94,522.7-138.7c-0.7-10-0.9-20.4,3.3-29.5c4.9-10.4,14.9-17.4,24.9-23.2c100.9-58.7,225.9-43.8,342.6-47.7
			c105.2-3.5,209-23.8,313.7-35.3c185.4-20.4,372.7-13,559.1-5.7c56.1,2.2,112.3,4.4,168.2,10.2c17.4,1.8,35.5,4.2,50.3,13.5
			c20,12.6,30.8,35.5,39.8,57.4c25,60.8,45.1,123.6,60,187.7c2.4,10.4,4.7,21,3.4,31.6c-1.6,13.9-9.3,26.5-18.3,37.2
			c-40.3,48-108.6,65.8-170.7,57.7c-62.1-8.1-119.1-38.6-171.2-73.5c-7.3-4.9-15.5-10.1-24.1-8.3c-6.9,1.4-12,6.9-17.4,11.4
			c-40,33.4-99.6,13.4-148.7-4c-6.3-2.2-13.1-4.4-19.5-2.8c-6.9,1.8-12,7.6-17,12.6c-27.7,27.9-69.1,41.5-108,35.4
			c-38.8-6.1-74.1-31.7-92-66.7c-48.1,41-117.7,55.2-178,36.3c-11.3-3.6-22.7-8.2-34.5-8c-9.5,0.2-18.7,3.5-27.8,6.3
			c-69.3,20.6-148.6,3.4-203.2-44.1C818.4,35,767.1,40.6,723.4,24.2L723.4,24.2z"/>
		<g>
			<path d="M722.2,19.8c-22.7,3.7-44,13.8-66.8,16.3C631,38.7,603,34.6,585,16.8c-16.7-16.5-27.3-40.1-36-61.6
				c-9.2-22.9-15.8-47-19.4-71.4c-1.8-12.2-3.8-25.2-2.7-37.5c1.3-14.5,10.1-23.7,22-31.2c19.7-12.4,41.5-21.5,63.6-28.4
				c44.3-13.8,90.7-18.1,136.9-19.6c47.1-1.6,94.3-0.1,141.4-1.6c53.5-1.7,106.7-7.7,159.7-14.8c53.7-7.2,107.3-15.3,161.2-21.1
				c53.8-5.8,107.7-9.2,161.8-11.1c108.7-3.7,217.6-0.8,326.2,3.3c54.3,2,108.6,3.8,162.9,7c26.6,1.6,53.2,3.4,79.6,6.6
				c24.4,3,45.5,10.8,60,31.6c13.4,19.3,21.2,42.5,29.5,64.2c9.4,24.7,18,49.6,25.8,74.9c7.6,24.7,14.5,49.7,20.5,74.9
				c3.3,13.6,7.5,27.8,4.9,41.8c-2.3,12.1-9.4,23-17.3,32.2c-27.4,32.1-67.8,50.1-109.1,55.5c-45.1,5.9-90.4-3.5-132.1-20.6
				c-22.8-9.4-44.6-21.1-65.7-33.9c-10.1-6.1-20-12.7-29.9-19.2c-8.5-5.6-18.3-10.8-28.7-7.5c-9.3,3-15.7,11.6-23.7,16.8
				c-8.8,5.6-18.7,9.1-29,10.8c-21.1,3.3-42.9-0.6-63.2-6.1c-10.7-2.9-21.3-6.3-31.9-9.9c-10-3.4-20.8-9-31.6-8.2
				c-9.8,0.8-16.4,7.9-23,14.4c-8.2,8.1-17.4,15-27.5,20.5c-39.1,21.3-86.9,19.5-124.1-5c-17.5-11.5-31.6-27.4-41.2-45.9
				c-1.4-2.8-5-2.7-7.1-0.9c-46,38.7-111,52.9-168.9,36.5c-15.2-4.3-29.9-11.1-46.1-9.1c-14.8,1.8-28.8,8.1-43.4,10.8
				c-29.5,5.6-60.2,4.5-89.4-2.5c-32.9-7.9-63.7-23.3-89.3-45.3c-1.5-1.3-3.7-1.8-5.5-0.7c-38.8,24.7-87.5,29.9-130.7,14.1
				c-5.4-2-7.8,6.7-2.4,8.7c45.3,16.6,97,10.9,137.6-15c-1.8-0.2-3.6-0.5-5.5-0.7c46.3,39.8,108.7,59.2,169.4,52.7
				c15.4-1.6,30.2-5.2,45-9.6c9.7-2.9,19.2-5,29.4-3.2c8.9,1.6,17.4,5.1,26,7.7c28.7,8.6,59.4,9.8,88.9,4.5
				c33.6-6,65.1-20.7,91.2-42.7c-2.4-0.3-4.7-0.6-7.1-0.9c19.3,36.9,56.3,63.6,97.7,69.2c22.1,3,44.9,0,65.6-8.3
				c10.2-4.1,20-9.4,28.9-15.9c8.7-6.4,15.6-15.9,24.6-21.7c11.2-7.2,27.1,2,38.4,5.9c10.9,3.7,21.9,7.2,33.1,10.1
				c20.5,5.2,42.2,8.5,63.3,5.3c9.6-1.5,18.9-4.4,27.4-9c4.4-2.4,8.5-5.2,12.4-8.3c4.9-4,9.5-9.3,15.9-10.8
				c12-2.7,26.5,11.4,35.9,17.4c10.8,6.9,21.7,13.5,32.9,19.7c78.3,43.7,177.3,68.2,259.4,19.5c18.1-10.7,34.4-24.9,46.6-42
				c6.6-9.2,11.6-19.7,13.1-31c1.7-12.4-1.3-24.9-4.1-36.9c-12.7-54.3-29.2-107.7-49.3-159.8c-8.3-21.4-16.1-44.3-29.4-63.1
				c-13.3-18.8-31.6-29.2-54.1-33.2c-25.9-4.7-52.7-5.9-78.9-7.6c-28.5-1.9-57.1-3.2-85.7-4.4c-114.3-4.7-228.7-9.4-343-8.4
				c-57.1,0.5-114.3,2.5-171.3,6.8c-56.7,4.2-113,11.4-169.3,19.2c-56.8,7.9-113.6,16-170.8,20.1c-51.1,3.7-102.3,2.8-153.5,3.3
				c-48.2,0.5-96.8,2.5-144,13c-23,5.1-45.6,12.4-67,22.3c-18.4,8.5-42.4,19.1-50.7,39.2c-4.7,11.5-3.5,24.4-2.4,36.4
				c1.2,12.5,3.1,24.9,5.7,37.1c5.3,24.6,13.4,48.5,24.2,71.2C558.4-3,570,18.6,589,31.8c19.3,13.4,47.4,15.9,70.1,12.9
				c22.4-3,43.2-12.5,65.4-16.2C730.3,27.6,727.8,18.9,722.2,19.8z"/>
		</g>
	</g>
	<g>
		<path class="st3" d="M733.3-103.5C776.6-47.8,852-26.3,922.6-26.7c26.1-0.2,55.6-4.8,70.2-26.4c22,19,44.9,38.4,72.8,46.5
			s62.3,1.3,77.7-23.2c2.8-4.4,5.1-9.5,9.4-12.5c7.6-5.2,17.7-1.8,26.2,1.5c32.3,12.9,65,24.9,98,35.9c31.4,10.5,73.3,16.8,91.3-11
			c6.4-9.8,9.5-23.6,20.7-27.3c6-2,12.5-0.2,18.6,1.7c29.6,9.1,59.5,19.1,90.5,20.2s63.9-7.7,84.5-30.9c2.8-3.2,5.6-6.8,9.5-8.5
			c9.2-4.1,19,3.6,26.6,10.2c38.8,33.6,90.4,52,141.7,50.2c51.3-1.7,101.6-23.4,138.1-59.6c5.8-5.8,11.4-12.1,14.3-19.8
			c3.8-10.1,2.4-21.4,0.9-32.1c-3.6-26.5-7.1-53-10.7-79.5c-0.9-6.5-2-13.5-6.7-18.1c-5.7-5.6-14.7-5.7-22.7-5.3
			c-235.4,9.7-470.8,40.8-705.7,24.2c-127.4-9-260.1-31.2-379.5,14c-18,6.8-36.2,15.7-47.7,31.2c-11.5,15.5-13.9,39.1-0.8,53.2"/>
		<g>
			<path d="M730.1-100.3c24.5,31.1,59.1,52,96.5,64.1c19.1,6.2,38.8,10,58.8,12.2c19.3,2.1,39.2,3,58.5,0.5
				c20.5-2.6,40.6-9.8,52.9-27.3c-2.4,0.3-4.7,0.6-7.1,0.9c27,23.3,57.1,48.9,94.5,50.9c15.4,0.8,31.6-2.3,44.8-10.5
				c6.2-3.9,11.7-8.8,16.1-14.7c5.6-7.5,8.3-17.3,19.6-16.1c10.3,1.1,20.6,6.9,30.1,10.6c10.2,4,20.5,7.8,30.8,11.6
				c19.4,7.1,38.8,14.5,58.6,20.2c26.3,7.6,63.2,13.2,83.7-9.9c5.2-5.8,8.1-12.9,11.8-19.6c4.9-9.1,10.9-13.7,21.6-11.1
				c20.8,5,40.7,12.9,61.7,17.3c35.3,7.4,74.7,7.4,105.8-13.2c7.4-4.9,13.4-10.8,19.4-17.3c3.7-4.1,7.5-6.5,13.1-4.8
				c5.1,1.5,9.5,5.4,13.4,8.7c14.2,12.1,29.5,22.5,46.2,30.7c33.7,16.3,71.6,24,109,20.9c37.2-3.1,73.6-16.1,104.2-37.5
				c14.2-9.9,29.9-21.9,39.1-36.8c10.5-17,5.4-37.8,2.9-56.3c-3.1-22.7-5.7-45.5-9.2-68.1c-1.2-7.8-3.9-15.8-11-20.2
				c-7.3-4.5-16.4-4.1-24.7-3.8c-45.2,1.9-90.4,4.6-135.6,7.5c-91.5,6-183,13.2-274.7,17.5c-91,4.3-182.3,5.8-273.3,0.4
				c-84.3-5-168.5-17.3-253.2-14.3c-40.9,1.5-81.8,6.7-121.1,18.3c-31.8,9.4-74.3,23-84.7,58.8c-4.2,14.6-2.1,30.4,8,41.9
				c3.8,4.4,10.2-2,6.4-6.4c-11-12.6-8.8-31.7-0.3-45c9.7-15.2,27.1-24.1,43.4-30.5c37.2-14.7,76.9-22.7,116.7-26.2
				c80.6-7.1,161.4,2.8,241.6,9.2c86.3,6.9,172.9,7.8,259.4,5c87.8-2.8,175.4-9.1,262.9-15.1c43.6-3,87.3-6,130.9-8.5
				c21.8-1.2,43.6-2.4,65.5-3.3c8.5-0.4,20.8-2.8,28.3,2.2c7.8,5.1,7.4,18.6,8.5,26.8c2.9,21.8,5.9,43.6,8.8,65.4
				c1.3,9.9,3.4,20.6,0.9,30.5c-2.3,9.3-9,16.5-15.7,23c-26.1,25.4-59.3,43.3-94.7,51.7c-36.2,8.6-74.2,6.5-109.4-5.2
				c-17.5-5.8-34.2-14.1-49.5-24.4c-7.8-5.3-14.8-11.3-22.1-17.2c-6.1-4.9-13.4-10-21.7-9.5c-8.6,0.5-13.3,7.1-18.8,12.8
				c-5.8,6.2-12.7,11.2-20.1,15.2c-15.1,8.2-32.4,11.9-49.5,12.5c-20.6,0.7-41-3.4-60.9-8.7c-10-2.7-19.9-5.7-29.8-8.8
				c-8.6-2.7-18.2-6.8-27.4-4.8c-15.4,3.3-18.3,20.1-26.2,31.2c-8.6,12-23.3,16.1-37.5,16.4c-15.3,0.3-30.4-3.2-44.9-7.8
				c-19.7-6.3-39.2-13.4-58.6-20.5c-9.9-3.7-19.8-7.4-29.7-11.3c-8.6-3.3-17.2-7.7-26.4-9c-8.2-1.1-15.7,1.1-21,7.6
				c-5,6.2-7.9,13.3-13.9,18.7c-25.6,23.4-64.4,15.9-91.5,0c-16-9.4-30.1-21.5-44.1-33.5c-2.3-2-5.3-1.6-7.1,0.9
				c-10.5,14.9-28.7,20.8-46,23c-18.1,2.3-36.9,1.4-55-0.4c-36.7-3.6-73.4-13.8-105-33c-17.8-10.8-33.6-24.6-46.5-41
				C732.9-111.3,726.5-104.8,730.1-100.3L730.1-100.3z"/>
		</g>
	</g>
</g>
<g>
	<g>
		<path class="st4" d="M791.5,876c28.5-34.3,40.7-81.6,32.2-125.4c7.9,38.3,40.2,66,61.2,99c30.5,48,36.8,107.5,34.9,164.3
			c-3.4,97.5-28.9,194.2-74.1,280.7c66.2-18.9,114-88.5,107.9-157.1c57.7,50.5,93.3,123.7,105,199.5c11.6,75.8,0.4,154-24.8,226.5
			c40.2-42.7,76.9-88.8,109.4-137.6c58.9,47.6,73.8,130.3,79.9,205.7c11.2,138.7,5.3,284-57.3,408.3l-458.3-85.3V902.3L791.5,876z"
			/>
		<g>
			<path d="M792.6,877.1c28.9-35.2,40.9-82.1,32.6-126.9c-1,0.3-1.9,0.5-2.9,0.8c7.1,32.9,31,57.6,50.5,83.7
				c22.6,30.1,35.8,64.5,41.7,101.6c6,37.8,5.1,76.6,1.6,114.6c-3.6,39.6-10.9,78.8-21.7,117.1c-12.2,43.5-29,85.7-49.8,125.7
				c-0.6,1.1,0.4,2.6,1.7,2.2c67.1-19.7,114.7-88.8,109-158.5c-0.9,0.4-1.7,0.7-2.6,1.1c89.4,78.8,120.1,202.6,105.3,317.7
				c-4.7,36.4-13.6,72.1-25.6,106.8c-0.5,1.4,1.5,2.5,2.5,1.5c40.3-42.9,77-89,109.6-137.9c-0.8,0.1-1.6,0.2-2.4,0.3
				c54.8,44.8,70.8,118.4,77.7,185.5c8,77.9,9.6,157.6,0,235.4c-4.9,40-13.1,79.6-25.4,117.9c-6.3,19.4-13.6,38.5-22.1,57.1
				c-1.8,3.9-5.6,9.1-6.3,13.2c-0.1,0.4-0.1,2.4,0,2.3c-0.3,0.2-1.3-0.3-1.6-0.3c-6.5,0.2-14.2-2.7-20.6-3.8
				c-13.1-2.4-26.2-4.9-39.3-7.3c-38.9-7.2-77.7-14.5-116.6-21.7c-44.1-8.2-88.1-16.4-132.2-24.6c-35.5-6.6-71-13.2-106.5-19.8
				c-10.5-1.9-20.9-3.9-31.4-5.8c-2.6-0.5-5.3-1.3-7.9-1.5c-3.2-0.2-0.4-0.8-0.9,1c0.5-2,0-4.9,0-7c0-5.9,0-11.8,0-17.7
				c0-21.1,0-42.2,0-63.3c0-31.1,0-62.2,0-93.3c0-38.7,0-77.3,0-116c0-43.1,0-86.3,0-129.4c0-45.3,0-90.7,0-136
				c0-44.6,0-89.2,0-133.8c0-41,0-81.9,0-122.9c0-35,0-70,0-105c0-26,0-52,0-78c0-14.5,0-29.1,0-43.6c0-1.9,0.4-4.3,0-6.2
				c0.3,1.4-1.9,1-0.5,1.3c0.6,0.1,2-0.6,2.6-0.8c3.2-1,6.5-2,9.7-3c9.7-3,19.4-6.1,29.1-9.1c14-4.4,28-8.7,42-13.1
				c1.8-0.6,1.1-3.5-0.8-2.9c-28,8.7-56,17.5-84,26.2c-0.6,0.2-1.1,0.8-1.1,1.4c0,9.4,0,18.7,0,28.1c0,25.5,0,51,0,76.4
				c0,37.9,0,75.7,0,113.6c0,46,0,92,0,138.1c0,50.4,0,100.8,0,151.2c0,50.9,0,101.8,0,152.6c0,47.4,0,94.9,0,142.3
				c0,40.1,0,80.2,0,120.3c0,28.9,0,57.7,0,86.6c0,13.6-0.8,27.5,0,41.2c0,0.6,0,1.2,0,1.7c0,0.6,0.5,1.3,1.1,1.4
				c15.2,2.8,30.4,5.7,45.6,8.5c36.5,6.8,73,13.6,109.5,20.4c44.1,8.2,88.3,16.4,132.4,24.7c38.2,7.1,76.3,14.2,114.5,21.3
				c12.6,2.3,25.1,4.7,37.7,7c5.6,1,12.2,3.4,17.9,3.3c0.2,0,0.5,0.1,0.8,0.1c0.6,0.1,1.4-0.1,1.7-0.7
				c40.1-80.1,57.2-169.2,61.1-258.2c2-45.8,0.7-91.7-2.6-137.3c-2.8-38.8-6.9-77.8-17.6-115.3c-11.4-40.1-31.1-78.2-63.8-105
				c-0.8-0.6-1.8-0.6-2.4,0.3c-32.5,48.7-69.1,94.6-109.2,137.3c0.8,0.5,1.7,1,2.5,1.5c39.9-115.4,43.7-247.4-20.5-355
				c-16.2-27.1-36.3-51.6-59.9-72.5c-0.9-0.8-2.7-0.3-2.6,1.1c5.6,68.4-40.9,136.3-106.8,155.6c0.6,0.7,1.1,1.5,1.7,2.2
				c36.4-70,60.2-146.3,69.8-224.7c8.9-72.9,10.5-156.4-30.1-220.9c-20.7-33-53.1-60.1-61.7-99.5c-0.4-1.9-3.2-1.1-2.9,0.8
				c8.1,43.6-3.7,89.6-31.8,123.9C789.2,876.5,791.4,878.6,792.6,877.1z"/>
		</g>
	</g>
	<g>
		<path class="st4" d="M1656.8,1857.3c-34.9-49-56.5-107.4-61.9-167.3c23.2,16.2,46.5,32.5,69.7,48.7c-0.3-22.4-0.6-44.8-1-67.2
			c-0.7-49.5,1.3-105.4,37.9-138.6c11.6,47.9,49,88.8,95.8,104.6c-36.1-70.2-38.2-152.2-39.6-231.1c-0.5-30.8,4.9-70.2,34.7-78.2
			c-1.8,35.1,16.1,69.1,41.5,93.4c25.4,24.3,57.7,40,90.4,52.9c-14,123.6-28,247.2-42,370.8c-0.3,2.8-0.7,5.8-2.2,8.2
			c-4,6.3-13.1,5.8-20.5,4.8c-67.1-9.5-136.4-2.2-200.1,20.9c-1.2-17.9-8.5-35.3-20.5-48.6"/>
		<g>
			<path d="M1658.1,1856.6c-34.7-49-56.1-106.7-61.7-166.5c-0.8,0.4-1.5,0.9-2.3,1.3c23.2,16.2,46.5,32.5,69.7,48.7
				c0.9,0.7,2.3-0.2,2.3-1.3c-0.4-31.1-1.6-62.2-0.9-93.3c0.6-25.4,3-51.5,12.7-75.2c5.6-13.7,13.8-26.1,24.7-36.2
				c-0.8-0.2-1.7-0.4-2.5-0.7c12.1,48.7,49.4,89.3,96.8,105.6c1.3,0.5,2.2-1.1,1.7-2.2c-21.4-42-30.9-88.5-35.2-135.1
				c-2.2-23.5-3.1-47-3.7-70.6c-0.5-19.2-1.7-38.7,1.8-57.7c3.4-18.5,11.6-38,31.3-43.6c-0.6-0.5-1.3-1-1.9-1.4
				c-2.4,57.4,41.2,102,88.4,127.5c14.4,7.8,29.4,14.3,44.6,20.2c-0.4-0.5-0.7-1-1.1-1.4c-9.2,81-18.3,161.9-27.5,242.9
				c-4.6,40.6-9.2,81.3-13.8,121.9c-0.5,4.8-0.2,11.5-4.1,15.1c-3.2,3-8.3,3.2-12.4,3c-8.8-0.5-17.7-2.2-26.5-3
				c-18.7-1.7-37.5-2-56.3-1.2c-42,2-83.6,10.3-123.1,24.6c0.6,0.5,1.3,1,1.9,1.4c-1.4-18.5-8.7-35.7-20.9-49.6
				c-1.3-1.5-3.4,0.7-2.1,2.1c11.7,13.3,18.7,29.9,20,47.5c0.1,0.9,0.9,1.8,1.9,1.4c37-13.3,75.7-21.5,114.9-24
				c19.7-1.3,39.4-1.2,59.1,0.4c9.3,0.7,18.5,2,27.7,3.1c5.8,0.7,12.8,0.9,17.5-3.1c5.7-4.9,5.1-14.7,5.9-21.5
				c1.2-10.6,2.4-21.2,3.6-31.7c2.4-20.8,4.7-41.6,7.1-62.5c4.8-42,9.5-83.9,14.3-125.9c5.3-46.9,10.6-93.9,15.9-140.8
				c0.1-0.7-0.5-1.2-1.1-1.4c-32.8-12.9-65.5-28.7-91-53.6c-24.4-23.8-41.4-56.5-39.9-91.2c0-1-1-1.7-1.9-1.4
				c-36.1,10.3-36.2,58.3-35.6,88.4c0.9,48.8,2.5,97.9,12.8,145.8c5.8,26.8,14.4,52.9,26.9,77.3c0.6-0.7,1.1-1.5,1.7-2.2
				c-46.4-15.9-82.9-55.9-94.7-103.5c-0.3-1.1-1.7-1.4-2.5-0.7c-39.9,36.7-39,96.6-38.2,146.6c0.3,20.1,0.6,40.2,0.9,60.3
				c0.8-0.4,1.5-0.9,2.3-1.3c-23.2-16.2-46.5-32.5-69.7-48.7c-0.9-0.6-2.4,0.2-2.3,1.3c5.6,60.3,27.1,118.6,62.1,168
				C1656.6,1859.6,1659.2,1858.1,1658.1,1856.6L1658.1,1856.6z"/>
		</g>
	</g>
</g>
<rect x="-228.3" y="740.9" width="9.1" height="8.6"/>
<g>
	<g>
		<path d="M120.1,49.8c-25.1-1.1-50.5-2.3-75.2,2c-11.4,2-22.9,5.3-31.7,12.8S-1,84.5,2.7,95.4c5,14.8,23,20.2,38.5,22.6
			c41.2,6.4,85,6.7,122.4-11.7c6.4-3.1,12.7-7,16.6-12.9c9.7-14.9-1.1-36.1-17.1-43.8s-34.8-5.7-52.4-3.5"/>
		<g>
			<path d="M120.1,48.3C101.4,47.4,82.7,46.6,64,48c-15.8,1.2-33.4,3.2-47,11.9C6.3,66.7-1.8,79.1,0.4,92.2
				c2,12.2,12.7,19.4,23.6,23.3c14.2,5,30.1,6.2,45,7.3c16.3,1.2,32.8,1.1,49.1-1.2c16-2.3,31.8-6.7,46.4-13.9
				c11.2-5.5,21.3-14,21-27.5c-0.3-13.4-9.7-26.1-21.5-31.8c-16.5-8-35.6-5.9-53.2-3.7c-1.9,0.2-1.9,3.2,0,3
				c25.1-3.1,61.5-5.1,70.5,25.3c4.3,14.6-4.5,25-17,31.4c-12.6,6.5-26.3,10.7-40.2,13.1c-28.2,5.1-58.3,3.6-86.4-1.7
				c-11-2.1-23.9-5.7-30.7-15.4c-9-13.1-1-29.6,10.9-37.6c13.7-9.2,32.1-11,48.1-12.1c18-1.2,36.1-0.4,54.1,0.4
				C122,51.4,122,48.4,120.1,48.3L120.1,48.3z"/>
		</g>
	</g>
	<g>
		<path d="M41.4,54.6c-1.1-8.7,2.2-17.5,7.3-24.6s11.9-12.8,18.7-18.3c4.1-3.4,8.4-6.8,13.4-8.6c5.7-2,11.9-1.7,18-1.3
			C106.8,2.3,115,3,121.8,7c6.7,4,11.3,10.9,14,18.2s3.7,15.1,4.7,22.9L92.2,64.7L41.4,54.6z"/>
		<g>
			<path d="M42.9,54.6c-1.2-13,6-24,15-32.7c9.1-8.8,19.5-18.5,32.8-18.9c11.9-0.3,26.6,0.4,35.5,9.3c9.3,9.4,11.2,23.2,12.8,35.7
				c0.4-0.5,0.7-1,1.1-1.4c-14.1,4.8-28.2,9.7-42.3,14.5c-1.9,0.6-4,1.7-5.9,2c0.9-0.1,0.7,0-0.2-0.1c-1.2-0.2-2.3-0.5-3.5-0.7
				c-8.6-1.7-17.3-3.4-25.9-5.1c-6.8-1.4-13.7-2.7-20.5-4.1C40,52.8,39.2,55.7,41,56c14.8,2.9,29.7,5.9,44.5,8.8
				c4.1,0.8,6.2,1.5,10.1,0.1c8.1-2.8,16.2-5.6,24.3-8.4c7-2.4,13.9-4.8,20.9-7.2c0.6-0.2,1.2-0.8,1.1-1.4
				c-1.7-13.1-3.6-27.3-13.1-37.3c-9.5-10-25.1-11.1-38.2-10.7c-14,0.4-24.5,10-34.2,19.1c-9.8,9.3-17.8,21.3-16.5,35.4
				C40.1,56.5,43.1,56.5,42.9,54.6z"/>
		</g>
	</g>
	<g>
		<path d="M39.8,79.7c2-9.8,2.2-20,0.5-29.8c34.1,5.9,69.4,5.1,103.2-2.2c1.3,7.9,2.6,15.7,3.8,23.6c0.3,1.9,0.6,4-0.1,5.8
			c-0.6,1.5-1.8,2.6-3,3.6c-15.3,12.5-36.6,14.2-56.4,14.3C70.5,94.9,51.6,93.5,39,81.7L39.8,79.7z"/>
		<g>
			<path d="M41.2,80.1c2-10.2,2.1-20.4,0.5-30.6c-0.6,0.6-1.2,1.2-1.8,1.8c34.5,5.9,69.8,5.1,104-2.2c-0.6-0.3-1.2-0.7-1.8-1
				c1.1,6.9,2.2,13.8,3.4,20.7c0.3,1.7,0.9,3.7,0.8,5.5c-0.3,3.5-2.7,5.2-5.2,7c-2.1,1.5-4.3,2.8-6.6,4c-10.5,5.4-22.4,7.2-34,7.8
				c-10.8,0.6-21.8,0.8-32.5-0.7c-5.8-0.8-11.6-2.1-17-4.5c-2.3-1-4.4-2.2-6.5-3.6c-0.3-0.2-4-2.7-3.9-2.4
				C40.5,81.4,41.1,80.4,41.2,80.1c0.7-1.8-2.2-2.6-2.9-0.8c-0.3,0.7-0.5,1.4-0.8,2.1c-0.2,0.5,0,1.1,0.4,1.5
				c8.7,7.9,19.8,11.3,31.3,12.7c13.1,1.5,26.8,1.3,39.9-0.3c12-1.4,24.1-4.7,34-11.9c4.1-3,6.4-5.7,5.9-11
				c-0.8-8.4-2.7-16.8-4.1-25.1c-0.1-0.8-1.1-1.2-1.8-1c-33.7,7.2-68.4,8-102.4,2.2c-1.2-0.2-2,0.7-1.8,1.8c1.6,9.7,1.4,19.4-0.5,29
				C38,81.1,40.9,82,41.2,80.1z"/>
		</g>
	</g>
</g>
</svg>
